PathFileType  4	(X/Y/Z) C:\PlaceHolderFilePath\
DataRate	CameraRate	NumFrames	NumMarkers	Units	OrigDataRate	OrigDataStartFrame	OrigNumFrames
  240.0		  240.0		   6		     47	     mm	  240.0	      1193	   2384
Frame#	Time	R_acr			L_acr			back_T			back_mid			back_B			R_asis			L_asis			R_psis			L_psis			R_ilium			L_ilium			R_thigh_TA			R_thigh_TP			R_thigh_BA			R_thigh_BP			R_kneejoint_LA			R_tibtub			R_shank_TA			R_shank_TP			R_shank_BA			R_shank_BP			R_fibula			R_ankle_LA			R_heel_T			R_heel_LA			R_heel_B			R_latfoot			R_met_5			R_toe			L_thigh_TA			L_thigh_TP			L_thigh_BA			L_thigh_BP			L_kneejoint_LA			L_tibtub			L_shank_TA			L_shank_TP			L_shank_BA			L_shank_BP			L_fibula			L_ankle_LA			L_heel_T			L_heel_LA			L_heel_B			L_latfoot			L_met_5			L_toe			
		X1	Y1	Z1	X2	Y2	Z2	X3	Y3	Z3	X4	Y4	Z4	X5	Y5	Z5	X6	Y6	Z6	X7	Y7	Z7	X8	Y8	Z8	X9	Y9	Z9	X10	Y10	Z10	X11	Y11	Z11	X12	Y12	Z12	X13	Y13	Z13	X14	Y14	Z14	X15	Y15	Z15	X16	Y16	Z16	X17	Y17	Z17	X18	Y18	Z18	X19	Y19	Z19	X20	Y20	Z20	X21	Y21	Z21	X22	Y22	Z22	X23	Y23	Z23	X24	Y24	Z24	X25	Y25	Z25	X26	Y26	Z26	X27	Y27	Z27	X28	Y28	Z28	X29	Y29	Z29	X30	Y30	Z30	X31	Y31	Z31	X32	Y32	Z32	X33	Y33	Z33	X34	Y34	Z34	X35	Y35	Z35	X36	Y36	Z36	X37	Y37	Z37	X38	Y38	Z38	X39	Y39	Z39	X40	Y40	Z40	X41	Y41	Z41	X42	Y42	Z42	X43	Y43	Z43	X44	Y44	Z44	X45	Y45	Z45	X46	Y46	Z46	X47	Y47	Z47	

1193	4.966670	818.466000	1582.360000	787.004000	856.280000	1532.278000	448.674000	696.524000	1316.330000	638.793000	703.509000	1245.955000	619.198000	709.147000	1221.770000	690.181000	928.469000	1032.126000	760.689000	912.187000	1051.073000	517.685000	719.116000	1078.590000	703.539000	715.395000	1087.731000	603.718000	726.423000	1033.605000	759.813000	714.011000	1054.798000	541.265000	1037.829000	751.893000	794.881000	974.388000	710.693000	799.216000	1080.554000	696.699000	780.948000	1012.901000	653.865000	788.996000	1079.011000	558.651000	761.607000	1088.826000	484.723000	709.965000	986.490000	472.809000	765.085000	945.005000	533.118000	770.117000	922.585000	448.679000	760.260000	899.149000	504.452000	765.505000	776.576000	424.662000	735.309000	678.963000	376.442000	726.463000	636.201000	420.749000	684.534000	600.176000	393.998000	716.529000	587.953000	408.851000	675.549000	660.505000	288.990000	742.457000	645.956000	232.610000	757.621000	730.403000	154.804000	691.859000	914.409000	709.173000	477.277000	839.250000	702.007000	467.669000	916.229000	639.088000	486.858000	839.022000	630.686000	482.762000	856.236000	492.115000	504.075000	882.258000	430.628000	552.797000	794.022000	373.064000	491.472000	728.917000	400.992000	493.439000	760.788000	316.062000	502.774000	707.603000	353.717000	499.780000	661.078000	207.396000	530.817000	602.248000	127.900000	541.079000	536.590000	124.782000	580.902000	542.126000	85.580000	542.228000	517.580000	78.127000	576.427000	640.120000	73.188000	523.239000	700.233000	39.628000	501.192000	818.798000	60.806000	569.108000
1194	4.970830	816.012000	1584.543000	786.744000	859.771000	1535.513000	449.590000	697.288000	1318.088000	636.891000	703.736000	1247.680000	617.222000	708.921000	1223.502000	688.481000	929.225000	1034.710000	760.903000	912.376000	1051.099000	517.590000	719.725000	1080.671000	703.990000	715.903000	1089.243000	604.137000	727.289000	1036.141000	760.656000	714.109000	1055.955000	541.889000	1041.700000	757.721000	795.028000	979.061000	715.305000	799.565000	1085.337000	703.422000	780.578000	1018.512000	659.248000	788.923000	1086.075000	565.032000	761.084000	1097.881000	491.107000	709.246000	995.976000	475.827000	764.720000	952.415000	534.632000	769.900000	933.169000	449.202000	759.831000	907.630000	504.183000	765.278000	787.885000	420.206000	735.137000	692.040000	368.144000	726.335000	647.207000	410.770000	684.749000	612.343000	382.242000	716.535000	599.496000	396.773000	675.584000	677.127000	279.876000	742.160000	664.941000	222.896000	757.258000	752.986000	149.044000	691.506000	906.987000	708.080000	478.574000	831.754000	702.545000	469.005000	907.388000	638.118000	488.163000	829.916000	631.353000	484.260000	843.813000	492.418000	505.060000	869.424000	429.616000	554.104000	780.277000	373.915000	492.004000	715.369000	402.385000	494.276000	746.403000	317.243000	503.304000	693.680000	355.431000	500.447000	645.887000	209.487000	531.098000	586.161000	130.334000	541.084000	520.861000	128.160000	580.604000	525.617000	88.559000	542.164000	501.125000	81.672000	576.385000	623.475000	74.665000	523.184000	682.997000	39.806000	501.284000	801.480000	60.654000	569.174000
1195	4.975000	813.578000	1586.865000	786.426000	862.980000	1538.775000	450.553000	698.130000	1319.887000	634.963000	704.579000	1249.461000	615.474000	709.956000	1225.465000	687.462000	929.966000	1037.048000	761.514000	912.655000	1051.215000	517.518000	720.358000	1083.015000	704.420000	716.512000	1090.963000	604.629000	728.191000	1038.909000	761.534000	714.303000	1057.287000	542.549000	1045.501000	763.629000	795.249000	983.633000	720.301000	799.979000	1090.034000	710.158000	780.300000	1023.979000	664.860000	788.886000	1092.632000	571.418000	760.639000	1106.283000	497.614000	708.877000	1005.284000	478.887000	764.111000	959.481000	536.034000	769.587000	943.470000	449.850000	759.555000	915.825000	504.090000	765.014000	799.453000	415.545000	734.802000	705.150000	359.469000	726.522000	658.524000	400.410000	684.715000	624.822000	370.227000	716.351000	611.537000	384.327000	675.421000	694.015000	270.678000	742.171000	684.249000	213.357000	757.075000	775.751000	143.644000	691.216000	899.649000	707.300000	480.084000	824.331000	703.470000	470.475000	898.627000	637.487000	489.887000	821.193000	632.253000	485.619000	831.420000	493.047000	505.967000	856.387000	429.716000	554.992000	766.632000	375.312000	492.600000	701.429000	404.652000	494.547000	732.296000	318.880000	503.848000	679.833000	357.530000	501.149000	630.772000	211.996000	531.346000	570.220000	133.191000	541.357000	505.472000	132.088000	580.336000	509.372000	92.267000	541.979000	484.906000	85.920000	576.340000	607.095000	76.350000	523.158000	665.891000	40.013000	501.685000	784.252000	60.197000	569.496000
1196	4.979170	811.206000	1589.358000	786.250000	866.024000	1542.293000	451.567000	699.073000	1321.792000	632.880000	705.811000	1251.261000	613.650000	710.428000	1227.562000	685.805000	930.654000	1040.067000	761.747000	913.072000	1051.470000	517.534000	721.413000	1085.084000	704.631000	717.371000	1092.761000	605.072000	729.142000	1042.027000	762.418000	714.573000	1058.764000	543.205000	1049.235000	769.671000	795.332000	988.031000	725.169000	800.299000	1094.384000	716.911000	779.872000	1029.241000	670.506000	788.747000	1098.855000	577.759000	760.233000	1114.493000	504.128000	708.145000	1014.151000	481.999000	763.757000	966.242000	537.453000	769.326000	953.489000	450.622000	759.210000	923.898000	503.792000	764.636000	810.720000	410.828000	734.591000	718.557000	350.861000	726.301000	670.228000	389.700000	684.492000	637.680000	358.062000	716.027000	624.049000	371.647000	675.228000	711.289000	261.744000	741.857000	704.122000	203.798000	756.457000	798.839000	138.539000	691.040000	892.468000	707.082000	481.595000	817.094000	704.766000	471.927000	889.783000	637.231000	491.368000	812.381000	633.687000	486.865000	819.208000	494.238000	506.964000	843.347000	430.382000	555.825000	753.109000	377.140000	493.360000	688.432000	407.136000	495.304000	718.251000	320.926000	504.374000	666.207000	360.151000	501.819000	616.011000	214.879000	531.643000	554.566000	136.590000	541.550000	490.471000	136.459000	579.891000	493.708000	96.554000	541.877000	468.975000	90.750000	576.058000	590.923000	78.386000	523.166000	648.699000	40.364000	501.932000	766.993000	59.911000	569.822000
1197	4.983330	808.415000	1592.242000	786.294000	869.069000	1546.019000	452.607000	700.095000	1323.730000	630.709000	707.656000	1252.352000	612.456000	711.125000	1229.609000	683.917000	931.603000	1043.063000	762.063000	913.674000	1051.946000	517.638000	722.318000	1087.741000	705.071000	718.213000	1094.812000	605.461000	730.145000	1045.271000	763.336000	714.973000	1060.401000	543.873000	1052.785000	775.762000	795.407000	992.308000	730.389000	800.736000	1098.585000	723.565000	779.509000	1034.277000	676.136000	789.322000	1104.699000	584.004000	759.673000	1122.005000	510.739000	707.854000	1022.756000	485.009000	763.450000	973.030000	538.703000	769.201000	963.330000	451.111000	758.892000	931.806000	503.352000	764.285000	822.047000	406.078000	734.213000	732.286000	342.087000	725.993000	681.567000	379.192000	684.436000	651.023000	345.906000	715.723000	636.944000	358.763000	674.606000	728.855000	252.812000	741.609000	724.350000	194.748000	756.087000	822.223000	133.685000	691.063000	885.414000	707.128000	483.285000	809.995000	706.515000	473.461000	881.118000	637.380000	492.956000	803.781000	635.559000	487.952000	807.113000	495.960000	507.994000	830.354000	431.522000	556.752000	739.915000	379.361000	494.067000	675.385000	410.055000	496.192000	704.466000	323.523000	504.944000	652.779000	363.294000	502.527000	601.614000	218.213000	531.896000	539.352000	140.449000	541.787000	475.961000	141.493000	579.512000	478.312000	101.207000	541.622000	453.408000	96.263000	575.931000	575.011000	80.725000	523.110000	631.866000	40.766000	502.382000	749.727000	59.660000	570.182000
1198	4.987500	806.205000	1594.861000	785.983000	871.962000	1549.750000	453.899000	701.223000	1325.682000	628.510000	708.850000	1254.899000	610.141000	713.029000	1232.569000	681.627000	932.523000	1046.056000	762.464000	914.388000	1052.550000	517.785000	723.297000	1090.525000	705.559000	719.098000	1097.010000	605.923000	731.223000	1048.642000	764.219000	715.478000	1062.215000	544.554000	1056.118000	781.621000	795.514000	996.399000	735.502000	801.186000	1102.506000	730.182000	779.147000	1038.963000	682.000000	789.574000	1110.034000	590.045000	759.271000	1129.226000	517.510000	707.680000	1031.123000	487.955000	763.055000	979.286000	539.598000	768.690000	973.079000	451.894000	758.616000	939.432000	502.762000	764.048000	833.546000	400.997000	733.639000	746.305000	333.550000	725.661000	694.016000	368.186000	683.978000	664.835000	333.509000	715.226000	650.410000	345.897000	674.282000	746.991000	244.011000	741.300000	745.088000	185.687000	755.661000	845.851000	129.475000	691.077000	878.466000	707.630000	484.985000	803.197000	708.625000	474.831000	872.828000	637.990000	494.771000	795.349000	637.862000	489.445000	795.035000	498.154000	508.857000	817.805000	433.335000	557.733000	726.890000	382.135000	494.793000	662.595000	413.292000	497.045000	690.966000	326.571000	505.458000	639.669000	366.687000	503.234000	587.427000	221.717000	532.187000	524.580000	144.513000	541.975000	461.873000	146.889000	579.216000	463.257000	106.322000	541.505000	438.196000	102.054000	575.649000	559.311000	83.245000	523.078000	614.991000	41.474000	502.629000	732.439000	59.470000	570.379000
